<svg xmlns="http://www.w3.org/2000/svg" viewBox="0 0 24 24" fill="none" stroke="currentColor" stroke-width="1.5" stroke-linecap="round" stroke-linejoin="round">
  <!-- Estructura principal de la estación -->
  <rect x="3" y="4" width="18" height="16" rx="2" ry="2" fill="#f3f4f6" stroke="#374151"/>
  
  <!-- Techo -->
  <path d="M3 4l9-3 9 3" fill="#e5e7eb" stroke="#374151"/>
  
  <!-- Surtidor de gasolina -->
  <rect x="8" y="8" width="8" height="12" rx="1" ry="1" fill="#fbbf24" stroke="#d97706"/>
  <rect x="9" y="9" width="6" height="10" rx="0.5" ry="0.5" fill="#fef3c7" stroke="#f59e0b"/>
  
  <!-- Manguera -->
  <path d="M12 20v2" stroke="#6b7280" stroke-width="2"/>
  <circle cx="12" cy="22" r="1" fill="#6b7280"/>
  
  <!-- Indicadores de combustible -->
  <circle cx="10" cy="12" r="0.5" fill="#059669"/>
  <circle cx="12" cy="12" r="0.5" fill="#059669"/>
  <circle cx="14" cy="12" r="0.5" fill="#059669"/>
  
  <!-- Ventana -->
  <rect x="4" y="5" width="4" height="3" rx="0.5" ry="0.5" fill="#dbeafe" stroke="#3b82f6"/>
  <rect x="16" y="5" width="4" height="3" rx="0.5" ry="0.5" fill="#dbeafe" stroke="#3b82f6"/>
  
  <!-- Puerta -->
  <rect x="10" y="5" width="4" height="6" rx="0.5" ry="0.5" fill="#fef3c7" stroke="#f59e0b"/>
  <circle cx="12" cy="8" r="0.5" fill="#6b7280"/>
</svg>
